<svg id="图层_1" data-name="图层 1" xmlns="http://www.w3.org/2000/svg" viewBox="0 0 587 551"><defs><style>.cls-1{fill:#00c1fc;}</style></defs><title>bg_plane</title><path class="cls-1" d="M347.5,320.5l51,2,202,35.6,13,14.4-5-26.39a6,6,0,0,0-3.17-5.32l-193-104.25c2.57-30.81-1.86-50-1.86-50h-28s-2.79,12.1-2.66,32.47L347.5,201.5V118c0-15.19-12.31-73.5-27.5-73.5s-27.5,58.31-27.5,73.5v83.5L260.16,219c.13-20.37-2.66-32.47-2.66-32.47h-28s-4.43,19.23-1.86,50l-193,104.25a6,6,0,0,0-3.17,5.32l-5,26.39,13-14.4,202-35.6,51-2V478.07c0,8.69,1.28,25.47,3.77,41.52L179.5,587.5v8l138.2-21.87,1,1.61a1,1,0,0,0,1.6,0l1-1.48L458.5,595.5v-8l-115.15-67c2.74-16.57,4.15-34.12,4.15-43.25Z" transform="translate(-26.5 -44.5)"/></svg>