<svg id="图层_1" data-name="图层 1" xmlns="http://www.w3.org/2000/svg" viewBox="0 0 558 382.5"><defs><style>.cls-1{fill:#545454;}.cls-2{fill:#565656;}.cls-3{fill:#474747;}.cls-4{fill:#a3a3a3;}.cls-5{fill:#b2b2b2;}.cls-6{fill:#d8d8d8;}</style></defs><title>bg_photo</title><path class="cls-1" d="M444.27,183H349.73a9,9,0,0,1-9-9V128c0-5,4-19,9-19h94.54c5,0,9,14,9,19v46A9,9,0,0,1,444.27,183Z" transform="translate(-53 -109)"/><ellipse class="cls-1" cx="79.5" cy="39.5" rx="27.5" ry="3.5"/><path class="cls-2" d="M567.48,491.5l-33.07-2.33c-1.61-.11-3.22-.17-4.82-.16L96.52,491.5A43.51,43.51,0,0,1,53,448V192A43.51,43.51,0,0,1,96.52,148.5l427,3.47q3.44,0,6.86-.27l37.06-3.2A43.51,43.51,0,0,1,611,192V448A43.51,43.51,0,0,1,567.48,491.5Z" transform="translate(-53 -109)"/><circle class="cls-3" cx="343.5" cy="216.5" r="140.5"/><circle class="cls-4" cx="343.5" cy="216.5" r="130.5"/><rect class="cls-5" x="482" y="58" width="14" height="3"/><rect class="cls-5" x="54" y="41" width="51" height="2"/><circle class="cls-6" cx="343.5" cy="216.5" r="119.25"/></svg>