<?xml version="1.0" encoding="utf-8"?>
<!-- Generator: Adobe Illustrator 23.0.3, SVG Export Plug-In . SVG Version: 6.00 Build 0)  -->
<svg version="1.1" id="图层_1" xmlns="http://www.w3.org/2000/svg" xmlns:xlink="http://www.w3.org/1999/xlink" x="0px" y="0px"
	 viewBox="0 0 640 640" style="enable-background:new 0 0 640 640;" xml:space="preserve">
<style type="text/css">
	.st0{fill:#46D37F;}
</style>
<g>
	<path class="st0" d="M530.54,97.92c0,0,7.04,11.38,4.31,25.42c-2.73,14.03-4.87,26.04-8.44,32.14c-3.57,6.1-8.16,23.44-4.65,29.95
		c3.51,6.51,9.31,17.53,26.13,16.93c16.83-0.6,25.22-12.44,26.73-28.47C576.13,157.85,561.81,132.82,530.54,97.92z"/>
	<path class="st0" d="M550,205.76c-13.79,0.49-21.39-5.54-26.15-11.9l-0.34-0.1L433.69,488.4c-3.64,12.53-9.19,58.77,3.35,62.41
		l8.38,2.44c12.53,3.64,30.72-38.92,34.36-51.45l79.18-297.41C556.23,205.17,553.25,205.64,550,205.76z"/>
</g>
<path class="st0" d="M477.4,264c-4.89-145.72-140-224-250.74-221.57c-109.6,2.41-174.5,151.4-148.75,294.91
	s141.13,267.69,242.01,224.79C428.4,516,482.4,413,477.4,264z M163.4,188c19.88,0,36,15.45,36,34.5s-16.12,34.5-36,34.5
	s-36-15.45-36-34.5S143.51,188,163.4,188z M141.4,366c-22.09,0-40-14.33-40-32c0-17.67,17.91-32,40-32s40,14.33,40,32
	C181.4,351.67,163.49,366,141.4,366z M196.9,480c-20.16,0-36.5-17.91-36.5-40c0-22.09,16.34-40,36.5-40s36.5,17.91,36.5,40
	C233.4,462.09,217.06,480,196.9,480z M212.4,141c-17.12,0-31-12.31-31-27.5c0-15.19,13.88-27.5,31-27.5s31,12.31,31,27.5
	C243.4,128.69,229.52,141,212.4,141z M305.4,544c-17.67,0-32-14.33-32-32c0-17.67,14.33-32,32-32s32,14.33,32,32
	C337.4,529.67,323.07,544,305.4,544z M414.4,302c-15.19,0-26-15.36-26-38s9.81-43,25-43s27,18.36,27,41S429.58,302,414.4,302z"/>
</svg>
