<svg id="图层_1" data-name="图层 1" xmlns="http://www.w3.org/2000/svg" viewBox="0 0 1905.31 951.64"><defs><style>.cls-1,.cls-2,.cls-3{fill:none;stroke:#64c5ff;stroke-miterlimit:10;}.cls-1,.cls-2{stroke-width:4px;}.cls-2{stroke-linecap:round;}.cls-3{stroke-width:3px;}</style></defs><title>pilotsam_index</title><path class="cls-1" d="M1799.29,134.3c-.23-1.6-10.66-5.84-10.66-5.84l-6.19-3.2c-5-3.13-11.76-2-11.76-2L1692,134.54l-74.43-72.2-14.94,2.41,41.27,76.69-82.69,11.86-7.8.7-32.08-22.48-10.23.72,14.42,26.18-1,.15c-.74.11-.84,1.33-.14,1.71l51.49,20.82,199-28.56a28.32,28.32,0,0,0,7.89-2.12,33.22,33.22,0,0,0,7.46-5.06C1797.46,138.66,1799.49,135.67,1799.29,134.3Z" transform="translate(-7 -60.21)"/><path class="cls-2" d="M1548.85,183.79S462.7,289.2,325.22,472.51,734.73,599.07,783.51,704C829.33,802.48,412.29,990.38,9,1008.71" transform="translate(-7 -60.21)"/><path class="cls-1" d="M999.94,896.91h4.86v-34H990.54A874.8,874.8,0,0,1,970.78,756C960.44,669.09,952,559.43,946.92,478.9h9.28V464.32H946c-2.51-41.24-4-73.18-4.34-87.67,0-.35,0-.72,0-1.06,0-1.39,0-2.61,0-3.62,0,1,0,2.22,0,3.6,0,.36,0,.75,0,1.13-.31,14.52-1.83,46.43-4.34,87.62H927V478.9h9.28c-5.09,80.53-13.52,190.19-23.86,277.06a874.8,874.8,0,0,1-19.76,106.93H878.43v34h4.86S844.4,965,781.21,1008.71H859a82.64,82.64,0,0,1,165.27,0H1102C1038.83,965,999.94,896.91,999.94,896.91Zm-70.48-75.79c6.89-41.15,11.77-76.66,12.16-89.47v.05c.39,12.81,5.26,48.3,12.15,89.42a187,187,0,0,1,2.43,41.77H927A187,187,0,0,1,929.46,821.12Z" transform="translate(-7 -60.21)"/><polyline class="cls-1" points="1150.01 946.21 1369.99 726.23 1459.36 815.59 1331.03 943.91 1612.88 657.49 1903.89 948.5"/><line class="cls-3" x1="1615.17" y1="659.78" x2="1816.82" y2="950.79"/><line class="cls-3" x1="1367.7" y1="728.52" x2="1436.44" y2="831.63"/></svg>